<mxfile>
    <diagram id="WINrH8xl9_BDoHL1TBoS" name="第 1 页">
        <mxGraphModel dx="722" dy="630" grid="0" gridSize="10" guides="1" tooltips="1" connect="1" arrows="1" fold="1" page="1" pageScale="1" pageWidth="800" pageHeight="700" math="0" shadow="0">
            <root>
                <mxCell id="0"/>
                <mxCell id="1" parent="0"/>
                <mxCell id="12" style="edgeStyle=orthogonalEdgeStyle;rounded=0;orthogonalLoop=1;jettySize=auto;html=1;entryX=0;entryY=0.5;entryDx=0;entryDy=0;strokeColor=#000000;strokeWidth=2;fontFamily=Roboto Mono;fontColor=#000000;" edge="1" parent="1" source="3" target="5">
                    <mxGeometry relative="1" as="geometry"/>
                </mxCell>
                <mxCell id="3" value="" style="image;html=1;image=img/lib/clip_art/computers/Server_Tower_128x128.png;flipH=1;fontSize=16;" vertex="1" parent="1">
                    <mxGeometry x="379" y="234.5" width="51" height="51" as="geometry"/>
                </mxCell>
                <mxCell id="5" value="" style="shape=image;verticalLabelPosition=bottom;labelBackgroundColor=#ffffff;verticalAlign=top;aspect=fixed;imageAspect=0;image=data:image/jpeg,/9j/4AAQSkZJRgABAQAAAQABAAD/2wBDAAgGBgcGBQgHBwcJCQgKDBQNDAsLDBkSEw8UHRofHh0aHBwgJC4nICIsIxwcKDcpLDAxNDQ0Hyc5PTgyPC4zNDL/2wBDAQkJCQwLDBgNDRgyIRwhMjIyMjIyMjIyMjIyMjIyMjIyMjIyMjIyMjIyMjIyMjIyMjIyMjIyMjIyMjIyMjIyMjL/wAARCAH0AfQDASIAAhEBAxEB/8QAHwAAAQUBAQEBAQEAAAAAAAAAAAECAwQFBgcICQoL/8QAtRAAAgEDAwIEAwUFBAQAAAF9AQIDAAQRBRIhMUEGE1FhByJxFDKBkaEII0KxwRVS0fAkM2JyggkKFhcYGRolJicoKSo0NTY3ODk6Q0RFRkdISUpTVFVWV1hZWmNkZWZnaGlqc3R1dnd4eXqDhIWGh4iJipKTlJWWl5iZmqKjpKWmp6ipqrKztLW2t7i5usLDxMXGx8jJytLT1NXW19jZ2uHi4+Tl5ufo6erx8vP09fb3+Pn6/8QAHwEAAwEBAQEBAQEBAQAAAAAAAAECAwQFBgcICQoL/8QAtREAAgECBAQDBAcFBAQAAQJ3AAECAxEEBSExBhJBUQdhcRMiMoEIFEKRobHBCSMzUvAVYnLRChYkNOEl8RcYGRomJygpKjU2Nzg5OkNERUZHSElKU1RVVldYWVpjZGVmZ2hpanN0dXZ3eHl6goOEhYaHiImKkpOUlZaXmJmaoqOkpaanqKmqsrO0tba3uLm6wsPExcbHyMnK0tPU1dbX2Nna4uPk5ebn6Onq8vP09fb3+Pn6/9oADAMBAAIRAxEAPwD3+s7V9astFtTPdyhf7qDq30o1rV4NF0yS8mI+UfKv94+leIavq91rN89zcuSSflXsorKpU5PU5MVilRVludJrPxE1C9Zo7EC2izww5YiuUuNQu7ti087uT6mq1FckpuW540606jvJi7m/vH86Nzf3j+dJRUmYu5v7x/Ojc394/nSUUALub+8fzo3N/eP50lFAC7m/vH86Nzf3j+dJRQAu5v7x/Ojc394/nSUUALub+8fzo3N/eP50lFAC7m/vH86Nzf3j+dJRQAu5v7x/Ojc394/nSUUALub+8fzo3N/eP50lFAC7m/vH86Nzf3j+dJRQAu5v7x/Ojc394/nSUUALub+8fzo3N/eP50lFAC7m/vH86Nzf3j+dJRQAu5v7x/Ojc394/nSUUALub+8fzo3N/eP50lFAC7m/vH86Nzf3j+dJRQAu5v7x/Ojc394/nSUUALub+8fzo3N/eP50lFAC7m/vH86Nzf3j+dJRQAu5v7x/Ojc394/nSUUALub+8fzo3N/eP50lFAC7m/vH86Nzf3j+dJRQAu5v7x/Ojc394/nSUUALub+8fzo3N/eP50lFAC7m/vH86Nzf3j+dJRQAu5v7x/Ojc394/nSUUALub+8fzo3N/eP50lFAD1lkQ5V2B9jWtp/inVtNdTDdMVHVG6Gsaimm1sVGcou6Z614e+INrqLrb6got5zwG/hNdqCGAIOQehFfOAODkV6P4D8XOZE0q/kyDxDIx/SumnWvpI9PC41yfJU+89JoooroPTPI/iJrLXurixjY+Vbjkdi1cXVnULhru/mnY5LNVavPnLmdz5utN1JuTCiiipMwooooAKKKKACiiigAooooAKKKKACiiigAooooAKKKKACiiigAooooAKKKKACiiigAooooAKKKKACiiigAooooAKKKKACiiigAooooAKKKKACiiigAooooAKKKKACiiigAooooAKKKKACiiigAooooAKfFI8MqyRsVdTkEdjTKKAPd/DusJqeh21yzfOV2tk9x1oryrRtblsrAQKxADGiuuNZW1PYhjVyq+5zzffb60lK33z9aSuQ8cKKKKACiiigAooooAKKKKACiiigAooooAKKKKACiiigAooooAKKKKACiiigAooooAKKKKACiiigAooooAKKKKACiiigAooooAKKKKACiiigAooooAKKKKACiiigAooooAKKKKACiiigAooooAKKKKACiiigAooooAmh+4frRRD9w/WiqKRE33z9aSlb75+tJUkhRRRQAUUUUAFFFFABRRRQAUUUUAFFFFABRRRQAUUUUAFFFFABRRRQAUUUUAFFFFABRRRQAUUUUAFFFFABRRRQAUUUUAFFFFABRRRQAUUUUAFFFFABRRRQAUUUUAFFFFABRRRQAUUUUAFFFFABRRRQAUUUUAFFFFAE0P3D9aKIfuH60VRSIm++frSUrffP1pKkkKKKKACiiigAooooAKKKKACiiigAooooAKKKKACiiigAooooAKKKKACiiigAooooAKKKKACiiigAooooAKKKKACiiigAooooAKKKKACiiigAooooAKKKKACiiigAooooAKKKKACiiigAooooAKKKKACiiigAooooAmh+4frRRD9w/WiqKRE33z9aSlb75+tJUkhRRRQAUUUUAFFFFABRRRQAUUUUAFFFFABRRRQAUUUUAFFFFABSMQoJNLWv4X0V9e1+C1x+4Q+ZMe20dqaV3ZFRi5NRW7Ok8O/DpdW0mO9v7me3eXlEjA+72JzWr/wAKp07/AKCV5+S/4V3yIscaxoAqqAAB2FOrsVGCWx7kcHRSSaucB/wqnTv+glefkv8AhR/wqnTv+glefkv+Fd/RT9lDsP6pQ/lOA/4VTp3/AEErz8l/wo/4VTp3/QSvPyX/AArv6KPZQ7B9UofynAf8Kp07/oJXn5L/AIUf8Kp07/oJXn5L/hXf0Ueyh2D6pQ/lOA/4VTp3/QSvPyX/AAo/4VTp3/QSvPyX/Cu/oo9lDsH1Sh/KcB/wqnTv+glefkv+FH/CqdO/6CV5+S/4V39FHsodg+qUP5TgP+FU6d/0Erz8l/wo/wCFU6d/0Erz8l/wrv6KPZQ7B9UofynAf8Kp07/oJXn5L/hR/wAKp07/AKCV5+S/4V39FHsodg+qUP5TgP8AhVOnf9BK8/Jf8KP+FU6d/wBBK8/Jf8K7+ij2UOwfVKH8p5zefCy2ispntL65kuFUmNXxgn0NebMrI7RyKVdCVZT2Ir6Pryr4keHfsd2Natk/czELOAPut2P41lVpJK8TjxmEjGPPTW25wlFFFcx5gUUUUAFFFFABRRRQAUUUUAFFFFABRRRQAUUUUAFFFFABRRRQBND9w/WiiH7h+tFUUiJvvn60lK33z9aSpJCiiigAooooAKKKKACiiigAooooAKKKKACiiigAooooAKKKKAEY7RmvZvAOgf2PoSzTLi6usSPnqB2Fed+C9COua/H5i5tbb95L6H0Fe3gAAAcAV00IfaZ6eX0d6j+QUUUV0nqhRRRQAUUUUAFFFFABRRRQAUUUUAFFFFABRRRQAUUUUAFVr+yh1GxmtLhQ0UqlSD/OrNFAmk1Znz7rGlT6Hqs1hOOUOUb+8vY1Rr2Hx94b/tnSvtdsmby1BZf9pe4rx1Tkensa4akOV2PAxNF0Z26dBaKKKzOcKKKKACiiigAooooAKKKKACiiigAooooAKKKKACiiigCaH7h+tFEP3D9aKopETffP1pKVvvn60lSSFFFFABRRRQAUUUUAFFFFABRRRQAUUUUAFFFFABRRRQAUhycKoyxOAB60tdf8PdA/tXWTfzrm1tDkZ6M/YfhVRi5OyLp03UmorqegeDdCGhaFHHIuLmb95Mfc9vwroaKK70rKyPo4QUIqK6BRRRTKCiiigAooooAKKKKACiiigAooooAKKKKACiiigAooooAKKKKADrXjPjzw6dF1c3cCYs7o7hgcK/cV7NWdrmkQ63pM9jNwJB8rf3W7Gs6kOZWOfE0PbQt16HgFFTXlnPp99NZXK7ZoWKtUNcJ8+1bRhRRRQAUUUUAFFFFABRRRQAUUUUAFFFFABRRRQAUUUUATQ/cP1ooh+4frRVFIib75+tJSt98/WkqSQooooAKKKKACiiigAooooAKKKKACiiigAooooAKKKKAHwwS3dzFbQKWllYIoHqa958P6PFoWjQWUYG5RmRv7zdzXB/DPQPPuH1u4T5Y8xwA+vc16hXXQhZczPXwFHlj7R7sKKKK3PRCiiigAooqtqF9Dpunz3k7YjiQsfegTaSuzG17xnpXh66S2umkeZhnZGucD3rK/4Wjof/PO7/7915hqeoTatqlxfzn55myB6DsKq1yOvK+h488fU5ny7HrX/C0dD/55Xf8A37o/4Wjof/PK7/7915LRS9vMj6/W8j1r/haOh/8APK7/AO/dH/C0dD/55Xf/AH7ryWij28w+v1vI9a/4Wjof/PK7/wC/dH/C0dD/AOeV3/37ryWij28w+v1vI9a/4Wjof/PK7/790f8AC0dD/wCeV3/37ryWij28w+v1vI9ZPxR0MD/VXX/fuum0XW7PXrAXlk5aMnBDDBU+4rwCuk8E+IToOtLHK2LO6ISQf3T2aqhWd/eNaOPm5pVNj2yikBDAEEEHkEUtdR64UUUUAFFFFAHn/wASPDhubYazbJ+9gGJgP4k9fwry4HIzX0e6LJGyOoZWGCD0Irw3xboDeHtbeJFP2SbLwN7dx+FcteFnzI8jH0OV+0j13MOiiiuc84KKKKACiiigAooooAKKKKACiiigAooooAKKKKAJofuH60UQ/cP1oqikRN98/WkpW++frSVJIUUUUAFFFFABRRRQAUUUUAFFFFABRRRQAUUUUAFWtN0+XVtTgsIBl5WAJ9B3NVCcDNepfDTQBbWL6xcJ++uOIgRyqf8A16uEeaVjbD0nVqKJ2unWEOmafBZwLiOJQo9/erVFFd59CkkrIKKKKBhRRRQAV5d8S/EHn3CaLbvlIyHnI/vdhXe+IdZi0LR5r2TBYDEa/wB5uwrwaaaS5uJLiZi0sjFmY9TmsK87LlR52PrcsfZrqMooorkPICiiigAooooAKKKKACiiigApCNwwaWigD1n4d+IzqWnnTLl83NqPlJ/iTt+VdvXzzpuoz6RqUF/bHEkTZI/vDuK960vUoNW02C9tzmOVc49D3Brsoz5lZntYGvzw5Hui5RRRWx3BRRRQAVgeMNETW9AmiEe64iHmQkddw7Vv0UmrqzJnBTi4vqfN+CCVYYZTgj0NFdl8RPD39maoNTt0xa3R+cAcI/8A9euNrglFxdmfOVabpzcX0CiiipICiiigAooooAKKKKACiiigAooooAKKKKAJofuH60UQ/cP1oqikRN98/WkpW++frSVJIUUUUAFFFFABRRRQAUUUUAFFFFABRRRQAUUUhOBQBq+HNGfXtdgswD5QO+ZvRR1r3mKJIIUijUKiKFUDsBXK+ANA/sjRBcTJi6u8O+f4V7D+tdbXbRhyxue5gqPs6d3uwooorU7AooooAKKK57xlrw0HQpJEYfaZv3cI9/X8KTaSuyZzUIuT6Hn/AMQdfOqaz9ghbNtZnB9Gfua5CjkksxJYnJJ7miuCUnJ3Z85UqOpJyfUKKKKkgKKKKACiiigAooooAKKKKACiiigArs/h34i/szUjpdy+LW5P7snoj/8A164ykORgqSGByCOxqoycXdGlKo6c1JH0jRXF+GfHNjdaPGNTuUhu4vkctxv9xWz/AMJfoP8A0EofzruU4tXue9GvTkk7m3RWJ/wl+g/9BKH86P8AhL9B/wCglD+dHNHuV7Wn/MjborE/4S/Qf+glD+dH/CX6D/0Eofzo5o9w9rT/AJkXdY0uHWNKnsZwCsi8H+63Y14Je2U2nX01lcKVlhYqc9/evbf+Ev0H/oIxfnXD+P5NC1OBNSsbuNr5CFZU/wCWi+/0rGslJXTOHGxhUjzxaujg6KKK5TyQooooAKKKKACiiigAooooAKKKKACiiigCaH7h+tFEP3D9aKopETffP1pKVvvn60lSSFFFFABRRRQAUUUUAFFFFABRRRQAUUUUAFdF4K0Ftc11GkQm0tiHkOOCey1zoVnZURSzsdqgdya9z8JaEugaFFbsB9of55iO7H/CtaUOaR1YOj7WprsjdAAAAGAO1FFFdp7wUUUUAFFFFACMwRSzEBQMkntXh3jDXW17XpHUn7NAfLiGeDjv+NegfEPXzpekCygfF1d5Xj+FO/515ABgAVy15/ZR5OYVrv2a+YtFFFc55oUUUUAFFFFABRRRQAUUUUAFFFFABRRRQAUUUUAIVB6ijaPSlooATaPSjaPSlooATaPSjaPSlooATaPSgKoOQKWigAooooAKKKKACiiigAooooAKKKKACiiigAooooAmh+4frRRD9w/WiqKRE33z9aSlb75+tJUkhRRRQAUUUUAFFFFABRRRQAUUUUAFFFIRkEUAdr8OdA/tHVTqk6Zt7U/u89Gf/wCtXrlcV8N9Wt7vRDYKixz2x+ZR/ED/ABV2td1JJR0PewcIxpLl6hRRRWh1BRRRQAVHcTx2tvJPMwWONSzE9gKkrgPihqd1babBYxIyw3J/eSj2/hqZy5Y3Mq1T2cHM8/17V5Nc1qe+kJ2sdsY9EHSs6jpRXA3fU+dlJyd2FFFFIQUUV1PhDwdL4hk+1XW6LT0PXoZD6D/GnGLk7IunTlUlyx3OesdPvdTm8mxtpJ3/ANkcD8a62x+GWq3Ch7q4htwf4OpH5V6lY6faabbrBZwJDGo4CirNdUaCW56tPL4Je+7nncfwqt9g8zUJC/favFO/4VVaf9BCX/vmvQqKv2UOxv8AU6H8p57/AMKqtP8AoIS/98ij/hVVp/0EJf8AvmvQqKPZQ7B9Tofynnv/AAqq0/6CEv8A3zR/wqq0/wCghL/3zXoVFHsodg+p0P5Tz3/hVVp/0EJf++aP+FVWn/QQl/75FehUUeyh2D6nQ/lPPf8AhVVp/wBBCX/vmj/hVVp/0EJf++a9Coo9lDsH1Oh/Kee/8KqtP+ghL/3zR/wqq0/6CEv/AHzXoVFHsodg+p0P5Tz3/hVVp/0EJf8AvkUf8KqtP+ghL/3zXoVFHsodg+p0P5Tz3/hVVp/0EJf++aP+FVWn/QQl/wC+a9Coo9lDsH1Oh/Kee/8ACqrT/oIS/wDfNH/CqrT/AKCEv/fIr0Kij2UOwfU6H8p57/wqqz/5/wCb8q5PxZoGn+HZ4bW2uZJrlhukDHhRXsuoXsOm2E95OwWOJSxJ/lXgGoX0up6lcXs5JeZy30HpWNaMYqyWpxYynSpRUYrVleiiiuc80KKKKACiiigAooooAKKKKACiiigCaH7h+tFEP3D9aKopETffP1pKVvvn60lSSFFFFABRRRQAUUUUAFFFFABRRRQAUUUUAafh7WZNB1uC9TJjztlUfxKa95gmjuII5omDxyKGVh0INfORGRivUvhpr/2myfR53/fW/wA0We6en4V0UJ2fKz0cBW5ZezfU7+iiiuo9cKKKKACsrxHo0eu6LPZOBvI3Rsf4WHStWik1dWYpRUk0z5ylhltp5LeZSssTFWB9RTK9A+JegeROmt26/I+EnAHQ9jXn9cE48rsfO1qTpTcGFFFFSZF3R9MfWNYtrBOkjDefRe9e+2ttFZ2sVtAoWKJQqgegryX4aKreKWJxkQNj9K9grroL3bnsZfBKDl1YUUUVuegFFFFABRRRQAUUUUAFFFFABRRRQAUUUUAFFFFABRRRQAUUVm6/q8WiaNcX0hGUXCD1Y9BSbsrilJRV2cF8S9eMs6aLbv8AInzz47nsK8+p808t3cS3M7FpZWLMT6mmVwTlzO587WqurNzYUUUVJkFFFFABRRRQAUUUUAFFFFABRRRQBND9w/WiiH7h+tFUUiJvvn60lK33z9aSpJCiiigAooooAKKKKACiiigAooooAKKKKACrWm6hNpOp29/ASHicEj+8O4qrRT2Gm07o+h9PvodSsIbyBg0cqhgR/KrNeY/DLXfLlk0Wd/lbMkGT09RXp1d0Jc0bn0NCqqtNSCiiirNgooooArahYw6lYT2dwoaOVCpz2968C1PTptI1OewnBDRMQCf4h2NfQ1cF8SfD/wBqsV1e3TM1uMSgDlk/+tWNaF1dHDjqPPDnW6PLKKAcjNFcZ4pr+F9VGjeIrW6c4iJ2SH0U17wrK6BlIKsMgjuK+byAQQelei+B/G6wxx6Tq0mAPlguG6Y/ut/jW9GaXus9DA4hQfJLZnplFIGDKGUgg9CKWus9gKKKKACiiigAooooAKKKKACiiigAooooAKKKKACiiigAryH4i67/AGlq66dA+be0+/g8M/f8q9A8Xa4ug6FLOrYnk/dwjvuPf8K8NLM7M7sWdiWZj3J71z15/ZR5mYVrL2a+YUUUVynlBRRRQAUUUUAFFFFABRRRQAUUUUAFFFFAE0P3D9aKIfuH60VRSIm++frSUrffP1pKkkKKKKACiiigAooooAKKKKACiiigAooooAKKKKAJLe4ls7qK6gYrLEwdT7ive9D1WLWtHt76Ig71+YejdxXgFdp8Ode/s/VW0yd8W90cpk8K/wD9etqM+WVjtwVb2c+V7M9cooorsPbCiiigApskayxNG6hkcFWB7g06igDwbxPoj6Brs1rg+Q53wt6qayK9n8deHxrWiNLEmbu2y8eOrDuK8XByPfoa4akOWR4GKo+yqWWz2FpCARg0tFZnMbui+MNX0PakU3n24/5ZSnI/A9q7ax+KOnygLe2ssL9ynzLXllFaRqSjsdFPFVaeieh7XH488PSRhzfBc9mGDT/+E58Pf9BBK8QwPQUbR6Cr9vI3/tCr2R7f/wAJz4e/6CCUf8Jz4e/6CCV4htHoKNo9BR7eQf2jV7I9v/4Tnw9/0EEo/wCE58Pf9BBK8Q2j0FG0ego9vIP7Rq9ke3/8Jz4e/wCgglH/AAnPh7/oIJXiG0ego2j0FHt5B/aNXsj24+OvDwBP9oJgVsadqNvqlot1asWib7rY614RoejNrut29gijax3SNjoo6175aWsNlaxW1ugSKNQqqOwrWlOU9WdmEr1K13JaE1FFFbHaFFFFABQTgZPSiuU8e6//AGNojQwti6usomDyo7mlJqKuyKk1Ti5PoefeN9dOt6+6xtm0tvkix3Pc/nXN0gHHPXvS157d3dnzk5ucnJ9QooopEhRRRQAUUUUAFFFFABRRRQAUUUUAFFFFAE0P3D9aKIfuH60VRSIm++frSUrffP1pKkkKKKKACiiigAooooAKKKKACiiigAooooAKKKKACgO8brJG22RCGUjsRRRQB7r4V1xNe0OG5yPOUbJl9GFbdeK+BdeOia6IpXxaXWEfPRW7GvauoyK7qU+aJ7+Fre1p3e6CiiitDpCiiigArxfx5oP9i64Z4UxaXWXXA4Vu4r2isfxNokevaJNaMB5uN0TH+Fx0rOpDmic2Ko+1p2W62PB6KdJFJBM8EqlZY2KsD2IptcJ4AUUUUAFFFFABRRRQAUUUUAFITtGTS1t+EtDbXteihZSbaE+ZM3bA7fjTSu7IqEXOSit2egfDnQDpukHUJ0xc3fIz2TtXa0iqqIEUAKowAOwpa74x5VZH0VKmqcFFdAoooqjQKKKKAGu6xxs7sFVRkk9hXhHifW31/XZrrJ8hD5cKnso/xrv/AIj+IPsOnLpdu/7+5H7zHVU/+vXlAGBiuWvO75UeRmFa79mum4tFFFc55wUUUUAFFFFABRRRQAUUUUAFFFFABRRRQAUUUUATQ/cP1ooh+4frRVFIib75+tJSt98/WkqSQooooAKKKKACiiigAooooAKKKKACiiigAooooAKKKKAEPt1HQ17R4E1/+2tEWOVs3VthHyeWHY14xWx4X1x9A1yK5z+4kIjmX1U1pSnyyOnC1vZVLvZnvFFNR1kRXQgqwyCO4p1dx74UUUUAFFFFAHlXxL0H7JeLrUC4imws/s3Y/jXB7h6ivoi/sLbUrR7W7iWWF+qtXP8A/CvvD3/Pq3/fZrmnRbldHmYjAynNyh1PF9w9RRuHqK9p/wCFfeHv+fVv++zR/wAK+8Pf8+rf99mo9hIw/s+r3R4tuHqKNw9RXtP/AAr7w9/z6t/32aP+FfeHv+fVv++zR7CQf2fV7o8W3D1FG4eor2n/AIV94e/59W/77NH/AAr7w9/z6t/32aPYSD+z6vdHi24eoo3D1Fe0/wDCvvD3/Pq3/fZo/wCFfeHv+fVv++zR7CQf2fV7o8WyWIRBudjhVHUmvb/Bnh9dA0REcA3U2HmbHfsPwpbLwRoVjdx3UVpmWM5Usc4NdDWtKlyu7OvCYR0m5T3CiiitzvCiiigAqC8u4rGzlup2CxRKWYmp683+Jmv4RNEgflsPPj07D+tTOXKrmVeqqUHJnCaxqcus6tcX8pP7xvlU/wAK9hVKiiuBu586227sKKKKQgooooAKKKKACiiigAooooAKKKKACiiigAooooAmh+4frRRD9w/WiqKRE33z9aSlb75+tJUkhRRRQAUUUUAFFFFABRRRQAUUUUAFFFFABRRRQAUUUUAFIRkYpaKAPWfhzr/9oaWdNnfNzajC56snY/0rt6+ftD1aTQ9Zt7+PJVGxIo/iU9RXvdrcxXlrFcwsGjkUMpHoa7KM+ZW7Ht4Gt7SHK90TUUUVsdoUUUUAFFFFABRRRQAUUUUAFFFFABRRRQAUUUUAFFFFABRRRQBS1bUodI0u4vpyAkSk89z2H514FeXk2oX017OSZZnLHPb2rtPiTr4vL1NIt3zDAd0xB4Zuw/CuFrjrTu7LoeLjq3PPlWyCiiisThCiiigAooooAKKKKACiiigAooooAKKKKACiiigAooooAmh+4frRRD9w/WiqKRE33z9aSlb75+tJUkhRRRQAUUUUAFFFFABRRRQAUUUUAFFFFABRRRQAUUUUAFFFFAAeRXpXwz14NC+izv8AMmXgz3HcV5rU9leS6dfwXsBIkhcMMd/arhLllc2oVXSmpH0TRVPS9Qh1XTYL2BgUlUHjse4q5XetT6FNNXQUUUUDCiiigAooooAKKKKACiiigAooooAKKKKACiiigArI8Ta1HoOiTXbEeZjbEPVj0rXrxnx9r39r62baF82tplRjozdzWdSfLE5sVW9lTut3scs8jzSyTSnMkjFmPqTSUUVwngBRRRQAUUUUAFFFFABRRRQAUUUUAFFFFABRRRQAUUUUAFFFFAE0P3D9aKIfuH60VRSIm++frSUrffP1pKkkKKKKACiiigAooooAKKKKACiiigAooooAKKKKACiiigAooooAKKKKAO2+H3ieLSZJtPv5xHaP88bueEbv+degf8Jd4e/6C9p/33XhBAI5GaTYv90flW0azirHZSxs6ceVK57x/wAJd4e/6C9p/wB90f8ACXeHv+gvaf8AfdeD7F/uj8qNi/3R+VP6xLsaf2jU7I94/wCEu8Pf9Be0/wC+6P8AhLvD3/QXtP8AvuvB9i/3R+VGxf7o/Kj6xLsH9o1OyPeP+Eu8Pf8AQXtP++6P+Eu8Pf8AQXtP++68H2L/AHR+VGxf7o/Kj6xLsH9o1OyPeP8AhLvD3/QXtP8Avuj/AIS7w9/0F7T/AL7rwfYv90flRsX+6Pyo+sS7B/aNTsj3j/hLvD3/AEF7T/vuj/hLvD3/AEF7T/vuvB9i/wB0flRsX+6Pyo+sS7B/aNTsj3j/AIS7w9/0F7T/AL7o/wCEu8Pf9Be0/wC+68H2L/dH5UbF/uj8qPrEuwf2jU7I94/4S7w9/wBBe0/77o/4S7w9/wBBe0/77rwfYv8AdH5UbF/uj8qPrEuwf2jU7I94/wCEu8Pf9Be0/wC+6P8AhLvD3/QXtP8AvuvB9i/3R+VGxf7o/Kj6xLsH9o1OyPYPE/jXTodDnGm30U91KNieW2Sue9eQDPUnJPJPvQFAPAApaznNzd2ctevKs7yCiiioMQooooAKKKKACiiigAooooAKKKKACiiigAooooAKKKKACiiigCaH7h+tFEP3D9aKopETffP1pKVvvn60lSSFFFFABRRRQAUUUUAFFFFABRRRQAUUUUAFFFFABRRRQAUUUUAFFFFABRRRQAUUUUAFFFFABRRRQAUUUUAFFFFABRRRQAUUUUAFFFFABRRRQAUUUUAFFFFABRRRQAUUUUAFFFFABRRRQAUUUUAFFFFABRRRQAUUUUATQ/cP1ooh+4frRVFIib75+tJSt98/WkqSQooooAKKKKACkzyAAST0AGTS16L8MdEhlS41a4jSRt2yEkZ2+tXCLk7GtGk6s+RHHW/hjX7uATwaXK0R6MeM/hWfcW9xZzGG6gkhkHUOuK+jKqahplnqlq1te26SxsOjDke4PY1u8OraM9CWWxt7stT56orc8U+GZ/DWo+WSZLOXJhlP8j71h1zNNOzPMnCUJcstwooopEhSEgfU9AO9LXcfDTRYr3UZ9TuI1kW2+SIMM7X9fyqox5nY0pU3VmoI5uLwzr09t9pi0uVocZ3Hg4+lZbBkdkdWV1OCrDBFfSFef/EvQrZ9N/tmNdlzCQrbR/rAfX6VtOjZXR3V8AoQcovY8voo7UVznmhUtvaXN2W+zQPLt+9tGcVDhmIVAWdjgAdzXufhHQk0HQYIGRftLjfM4HJY9vw6VpTp87OnDYf20muiPGP7K1H/AJ8pv++TR/ZWo/8APlN/3ya+hMD0FGB6Ctvq67nb/Zsf5j57/srUf+fKb/vk0f2VqP8Az5Tf98mvoTA9BRgego+rruH9mx/mPnv+ytR/58pv++TUVxZ3doqtc28kSt0LLgGvonA9BWfrekQa1pM9jMo+dflYj7rdjQ8OraMUsuVnyy1PAKKkubWawvJrO4GJoGKN71HXKeW007MKOSQACSeAAOtFd38MdItb26utSnXfJbMI41PQZGc1UI8zsaUabqzUEcrN4e1u2sxdzabMluRnfjJx9KzQQa+kcAjBHFeLeP8AToNP8Uv9mjEcc0YkZR/ePWtalLlV0dWJwapR5ou5zFS2lpdahceRZW7zy/3UFQtk4A6kgD8a948MaJDoeiQW0aKJSoaVwOXY9zUU6fOzHDYf20mr2SPFr/RNW0pA+oWEkKHo3UfnVGvoyeCK5heGaNXjcYZWGQRXhPifSY9E8RXFjCxaL/WJn+EHtVVKXJqjTFYT2KUou6MmiiisTiCiignAyaAEJAGTVuy0vUdSOLGylm+i4Fdd4E8HR6rnVNTiLWqnEMR6OfU+1eqxxRwxrHEioijAVRgAVvCjzK7O/D4F1I803ZHgN9oWr6Wge+0+WJD/ABAbh+lZ4IIyK+kGVXUqyhgeCCK8T8daJBoXiELagLBdKZVjHROeR+dKpS5VdCxOD9jHmi7o5wnAzWhZaBrOpQefZadLLF/e6Vf8F6Pb634kjguyTDEhlKD+Mg9D7V7eiLGgRFCqowABgCinS5ldhhsH7WPNJ2R86TwTWszQ3ETxSr1VhimV7p4l8MWniOxMUoEdwozFMByp/qK8U1DT7vSb+SyvYzHMh/Bh6j2qalNw9DLE4aVF90VqKKKzOYKKKQkAZNAASAMmtK08Pa1f232m102WSDruxjP0FdZ4I8EG8aPVtWiIgHzQQMPv/wC03t7V6kAFAAAAHQCuiFG6uz0KGBc4803Y+cXV4pDHKjI6nBVhg0leufEXRI73QjfRRL9qtiDv77O4ryIHIyKyqQ5HY5sRQdGfKLRRRUGAUUUUATQ/cP1ooh+4frRVFIib75+tJSt98/WkqSQooooAKKKKAA9K9a+GH/ItyD0lNeS9q9Z+GH/IuSf9dTW1D4ztwH8b5Hb0UUV2HtmfrWj22uaZLZXQ+Vx8rjqjdiK8M1fSLvQdTksLxfmXlJB92RexFfQdc/4u8Np4j0oxrhbqL5oXPr6fQ1lVp8yutzjxeG9rG63R4fRT5oJrW4ktriNo5422ujDBBplcR4YV6f8ACn/kF6j/ANdx/KvMK9P+FP8AyDNR/wCu4/lWtH4zrwP8dfM9BrlPiL/yJ9z/ALy/zrq65T4i/wDIn3H++v8AOuufws9iv/Cl6HjQ6CigdKVI5J5UghRnllYKqqMkk15584jrvh3oX9qa0dQmUNbWZ+XPeTsK9hrK8OaNHoWiW9kuGdVzI+MbmPU1q1304csbH0GGo+ypqPXqVdR1G20qwlvbyTy4Ixlj/hXLj4neHSM7rv8A78//AF65b4ka99v1NNKgbNvbHdIwbId/T8K4qsp1mnZHJXx0oTcYdD1//hZvh3+9df8Afn/69J/ws3w7/euv+/P/ANevIaKj28jH+0KvZHveheItP8RW7zWEjMI22srrtYfhWrXgvhnXH8Pa5FeZP2d/knXPBU9/wr3eKVJ4UljYMjqGUjuD0renPnR34XEe2hd7o87+Jnh7Ma65bIMx4W4x3Xsa82ByM19GXEEd1byQTIHjkUqykdQa8F8QaNJoGtz2L8x53Qt/eQ9Kxrws+ZHFj6HLL2i67mbXpXwm/wCPPU/+uw/lXmtelfCb/jz1P/rsP5VFH40YYL+Oj0avIfib/wAjNH/1wX+Zr16vIfib/wAjPH/1wX+ZrorfAenjv4LOMP3k/wB8fzr6Oh/1Ef8Auj+VfOJ+8n++P519HQ/6iP8A3R/Ks8P1OXLftfL9R9eK/EL/AJHSf/rkle1V4r8Qv+R0uP8ArklXX+E2zD+EvU5miiiuM8YK6Pwh4UfxJfGSfcmnwn94w/5aH+6Kz9B0G68R6mtnb5SIczTY4Rf8a9x0vTLbSNPisrRNkMYwPUn1PvW1KnzO72O3B4b2r55bL8SxBDHbQJDCgSNFCqo6AVJRRXYe2FeUfFX/AJD2nf8AXu3/AKFXq9eUfFX/AJD2nf8AXs3/AKFWVb4Djx/8F/Iw/B2sQ6F4jjubn/USKYmb+7nvXuMciSxrJGwZGGQwOQRXzgQCMHoa7PwV40fRpU03UXLWDnEchOTCfQ+1Y0alvdZx4LFKH7uex69WF4n8MWviOx8uQBLlBmGYDlT6H2rcR1kQOjBlYZBB4Ipa6mk1ZnrSiprllsfO9/YXWlX0llexmOZD+DD1FV69x8U+F7bxHY7WxHdRjMU2OQfQ+1eKahZ3Gk3klpexmOWM4Oeh9xXFUpuD8jwsThnRfkQEhRknArvPA/gk3zR6tqsWLYfNBAw+/wD7Te3tSeCPBDag8eratEVtQd0EDD/Wf7Te3t3r1UAKAAAAOABWtKl9qR14PCf8vKnyQoAAAAwB0Aoork/GXjGLw/b/AGW12y6lKvyJ2jH95v8ACuhtJXZ6U5xhHmlsUfiP4hgtdMOkwTZvZyCyLztTvn0zXlIGBgU6WWW4nkuLiRpZ5TueRjksabXDUnzu54GIrOtPm6BRRRUGAUUUUATQ/cP1ooh+4frRVFIib75+tJSt98/WkqSQooooAKKKKADtXrPww/5FyT/rqa8m7V6z8MP+Rck/66mtqHxnbgP43yO3rkfH2u3vh6ysLyyYZNyFkVhkMuORXXVwHxX/AOQLYD/p6/8AZTXTUbUW0epiZONKTjudnpWpW+r6bDe2rho5Vzx2PcVcrw3wn4mn8NakMsWsJm/fRdl/2h717dDNHcQJNC4eN1DKw6EGlTnzoWGxCrRv16nH+PfCZ1i1/tCyjH26BeVA5lX0+oryJW3DoQRwQeoNfSNeZfEPwoImfXLGMBT/AMfMajv/AHv8azrU7+8jlxuGv+8hv1PPK9P+FP8AyDNR/wCu4/lXmAIIyK9P+FH/ACC9R/67j+VZUfjOTA/x18z0GuU+Iv8AyJ9x/vr/ADrq65P4jf8AInXP+8v8665/Cz2K/wDCl6HjY6V3Xw00L7XqEmsTxnyoPkgP+33NcTaWs1/dwWduuZJmCj2969+0bTItH0m3sYQNsSAE/wB49zXLRhd37HlYCjzz53svzL1YnivXE0HQprrI85hsiHqxrbJwMnpXifjfxB/buuGOFgbO0JSMg/ebuTXRUnyxPRxVb2VO/V7HNlmd3kkOZHYsx9Se9FFa2keGdY1xBLZ2p+z5x5r8DP8AWuJJt2R4UYym7RV2ZNFdefhtro/jgP40n/Cttd/vwfnVezn2Nfqtb+U5AgEEGu68K+P00fSVsNQjlm8r/VyA5OPSqn/Cttd/vwfnSf8ACtdd/wCekH51UY1Iu6RrSp4ilLmjE6c/FPS+1rcfpXPeKvFGjeJbEYtZI7yI5ikP8j7VD/wrTXf+ekH50f8ACtddH8cH51bdVqzRtOeKnFxlDRnJDpzXWeC/Fdp4Zt7yO5hkczSB1KfTFYmt6LcaBdx2tzLHJKy7iE/h9jU+heGL/wASRTyWTxqsLBW39zWUeaMtNzkpe0p1bRXvI7z/AIWnpWP+PW4/SuJ8Xa7b+IdWS7tonRVjCHd3q/8A8K013/npDWHrWiXegXwtLsqzlQwZehrScqjXvI3r1MTKFqkbIzT95P8AfH86+jof9RH/ALo/lXzifvJ/vj+dfR0P+oj/AN0fyqsP1Nct+18v1H14r8Qv+R0uP+uSV7VXivxC/wCR0uP+uSVdf4TbMP4S9Tmams7O61K9jsrKIy3EpwFHb3PoKhwzOqRozyOdqIoyWPYCvZPBHhT+wLE3N0o+33CjzO+wf3a56cHNnnYfDutK3TqaXhjw9D4c0lbZCHmb5ppP7zf4VtUVna5rNtoWly3t04AUYRe7t2Art0ij3fdpx7JGT418UxeG9Icxupv5RiCPv9T7VqeHnml0CzmuJDJLJGHZj6mvB9Y1C41a6uL66YtLJkgH+EdgK938Of8AIt6d/wBcF/lWVOpzyfY5MPiHWqy7JaGpXlHxV/5D2nf9ezf+hV6vXlHxV/5D2nf9ezf+hU63wFY/+C/kcNSEAjBGRS0VxHhnaeCfGraRImmanIWsWOIpWOTCfQ/7P8q9bVldQykFSMgjvXzeQCMEZBrtfBXjdtIZNL1SUtYscQzMeYj/AHT7V0UqtvdkejhMXy/u6m3RnrlZWqeHNM1m6t7i9thJJbtlD6+x9RWorK6BlOVIyCO9LXU1c9ZpSVmIAFAAAAHAApaK5Xxh4wh8PW/2eDEmoyL+7Tsg/vGk2krsU5xhHmlsJ4x8YQ+Hrf7NbFZdRlHyJ1EY/vN/hXjksstzcSXFxI0s8p3O7HJJpZp5rq4kuLmVpZ5Dud2PJNMriqVHNnhYjESrS8gooorM5gooooAKKKKAJofuH60UQ/cP1oqikRN98/WkpW++frSVJIUUUUAFFFFAB2r1n4Yf8i5J/wBdTXk3avWfhh/yLkn/AF1NbUPjO3AfxvkdvXAfFb/kDWH/AF8/+ymu/rgPit/yBrD/AK+f/ZTXRV+BnpYv+BI8u612fgXxdJpNyml30mbCQ4jZj/qmPb6GuMpCAwwa44ycXdHiUqkqUlKJ9IgggEHINNdEkjZHUMjDDKRkEV5/4B8ZfakTRtScC4QYgmPSRfQ+4/WvQq7oyUldH0FKrGrDmieM+N/Cn/CP3n2u0BOnztwv/PJvT6V0nwn/AOQTfn1nH8q7q+sbfUbKW0uohJDKu1lNcz4L0C68My6hYSAPbPL5kE3cj0NZqnyzutjlWG9niFOOzv8AI66uU+I3Pg65/wB5f511dcp8Rf8AkT7j/fX+daT+FnTX/hS9DxuGaW2miuIW2yxMHU+4r3rw7rMeu6LBeoV3sMSKp+646ivBB0rrvh5r39la1/Z8z4tbs4Geiv2P49K5aM+V27nkYKt7OfK9mexda8a8f+H10bWhd28YW0u+cKOFfv8An1r2WsjxNoqa9oc9mwHmY3RE9nHSuipDmjY9TFUfa02uvQ8GCq8iI52ozAMfQV9C6ZDFb6XaxQ48tYlC4HbFfPTxPG8kEwxJGxRx6Eda7LQviLfaVZx2d3bi6jjGFkzhgvp71z0ZqLdzzcFWhSk1PS569RXnX/C1YP8AoHSf99Uf8LVg/wCgbJ/31XT7WHc9L63R/mPRaK84f4sQKhP9nPx6tXa6FqUur6RDezWrWzSjIjbrjsacZxlsy4VqdR2g7mlVPVdRh0nTLi+nP7uFSxA6n0Aq5XlnxM137TeRaNA37uE+ZMVP8XZTSnLljcVeqqUHI4i8vJtSv5724YtLMxYn27V6J8JuLLU/+u4/lXmtelfCb/jz1P8A67D+VctL4zyMG266b8z0avIfib/yM0f/AFwX+Zr16vIfib/yM8f/AFwX+ZrorfAeljv4LOMP3k/3x/Ovo6H/AFEf+6P5V84n7yf74/nX0dD/AKiP/dH8qzw/U5ct+18v1H14n8RGC+Nbgn/nile2VxE/g9tV8fSatfxq1hHGojjP8bD19q0qxclZHVjKUqsFGPco/Drwr5KLrd9ERMw/0dGH3V/vfU16LSABQAAABwAKGYKpZiAoGST2q4xUVZG9KlGlHliRXd3DY2kt1cSCOGJSzMewrwzxLr8/iPVWuJCRbRkiCLso9fqa0vGviuTXr02ls5XToW6D/low7muWrmq1ObRbHlYzE+0fJHZfiMm/1L/Q17/4b/5FvTv+uC/yrwCb/Uv9DXv/AIb/AORb07/rgv8AKnh92Vlvxy9DUryj4q/8h7Tv+vZv/Qq9Xryj4q/8h7Tv+vZv/Qq1rfAdeP8A4L+Rw1FFISFBJOAO9cR4YEhQSTgCu38EeCG1R49V1aIizHzQQMP9af7x9vSl8EeCG1R49V1WIrZKd0EDDmU/3m/2fbvXrAAUAAAAcADtXRSpX96R6OEwnN+8qbdECqEUKoAUDAA7UtFY2reKdK0S+trS9uNktwcDAyF929BXS2luerKSirt2NmuZ8WeEbbxFbGVAI79F/dy+vsfaulBDKGUggjII70tDSaswnCM48stj50ubaexupLW6iaKeM4ZWqKvavF3hGDxFa+bEFjv4x+7k/vf7Jrxm4t57O6ktbmNop4zh0YdK4qlNwfkeFicNKjLyI6KKKzOYKKKKACiiigCaH7h+tFEP3D9aKopETffP1pKVvvn60lSSFFFFABRRRQAdq9Z+GH/IuSf9dTXkx6V618MP+Rbc+sprah8Z25f/ABvkdtXAfFb/AJA1h/18/wDsprv64D4rf8gaw/6+f/ZTXRV+BnpYv+BI8uooorhPAFVnjkSSNisiEMrDsRXsngzxdF4gtBbXBEeowr86f3x/eFeNVPZXtxpt/DfWrbZ4jlff2rSnPkZ0YbEOjK/TqfRNFZPh3X7XxDpaXduw3j5ZY+8bdwa1q7U01dHvxkpK62CuU+Iv/In3H++v866uuV+Igz4Ouf8AeX+dKfwszr/wpeh4yOlIcjBU4ZTkfWlHSivPPnD3Dwdr41/Qo5nYG5i/dzj/AGh3/GugrxDwVrv9heII/Nci0uf3cvop7NXt4IIBHQ13Up80T38LW9rTu90eTfErQhY6jHq0C/ubj5ZQFwEYd/xriMivobUNPttUsZbO7jEkEgwymuaHw18OgYEdx/39rOdFuV0cuIwMpzcoPc8eozXsX/CtvD3/ADzuP+/tJ/wrbw9/zzuP+/tR7CRj/Z1TujzjwloZ8Q6/HAwb7LD+8mYDggfw/jXuiIsaKiABVGAB2FZ+i6FYaBaNbWERRGbcxY5LH3NaVb04ciPQw2H9jCz3Zm69q8Wh6NcX0pH7tfkX+83YV4HLNLdXEtzO26aZi7t6k12PxH10ajqqaZA4a3tDlyO8np+ArjK5607yt2PNx1bnqcq2QV6V8Jv+PPU/+uw/lXmtelfCb/jz1P8A67D+VKj8aIwX8dHo1eQ/E3/kZ4/+uC/zNevV5D8Tf+Rmj/64L/M10VvgPTx38FnGH7yf74/nX0dD/qI/90fyr5xP3k/3x/Ovo6H/AFEf+6P5Vnh+py5b9r5fqPooorpPVCvM/H3jEs0miaa+B925mB/8cH9TWx448Yro0DadYsG1CVeWHSJT3+teR8klmJZicknqTXPWqW91Hm43FW/dw36iAADApaKK5TyRk3+pf6Gvf/Df/It6d/1wX+VeATf6l/oa9/8ADn/It6d/1wX+VdGH3Z6OW/HL0NSvKPir/wAh7Tv+vZv/AEKvV68o+Kpxr2nf9e7f+hVrW+A68f8AwX8jhSQoJJwBXb+CPBLaq8eq6rGVslO6CBhzKf7x/wBn+dY/gvR4db8TRQXQ3QRKZWXs2Oxr3FVCqFUAKBgAdqxo07+8zjwWFU/3k9gACqFUAADAA7UtFc94q8VW/hyz7SXkg/dRf1PtXU2krs9aUlCPNLYZ4s8V2/h2z2riS9kH7uL09z7V4veXM2o3MtzeSGWWU5YtTry8uNQvJLu7kMk8hyWP8qhriqVHN+R4WJxLrPyO38E+N20t49K1WUtZMdsM7HJiP91v9n+VesAhlDKQQRkEd6+byAwIIyD2ruPBHjdtLePStVlLWTHbBOxyYj/db/Z/lWlKrb3ZHThMXy/u6m3RnrNcv4v8IQ+IrXzodsWoRj93J/fH91q6cEMAQQQeQRS10tJqzPUnCM48stj5zngmtLmS2uYminjO10Ycg1HXrHxG0CG80o6pDEBeW+MuP4k759cV5MDkZFcNSHI7HgYig6M+XoLRRRUGAUUUUATQ/cP1ooh+4frRVFIib75+tJSt98/WkqSQooooAKKKKACvRfhhrUMaXGkzyoj7g8AJxu9a86oxyCCQR0IODVwlyu5rRqulNTR9IZ4zXlvxM1y1vZbfSrc+ZJbyeZK6nIU4xt+tcide1hrb7MdRm8nGNu7tWcBj1Pua0qVuZWR14jGqpDkitxaKKKwPPCiiigDS0DWrjw9qq3ttkq3yzR54da9r0bXtP120FxZzq2OHQnDIfQivAqELRuHjdkYd1OK1p1XDTodeGxcqPutXR9IZGM1578SfEFqNPOiwuJLiUhpNp/1YHr7muBk17WJrfyJNRmMXTburP7kkkk9STk1c611ZG1fH88OWC3DtRRRXOecIy7lxXsngDXzrGhLBOxN1aYjct/EOx/LivHKkguJ7WTzLeZ4nIwSpxxWlOfI7nRhq7ozv0PovI9RRkeor57/tTUP+fyb/AL7NH9qah/z+Tf8AfZrb6wux3/2jD+Vn0JkeooyPUV89/wBqah/z+Tf99mj+1NQ/5/Jv++zR9YXYP7Rh/Kz6EyPUVi+KtbTQtBnuuTKRsiCnnce/4V4r/amof8/k3/fZqGe7ubrb9onkl29NzZxSddW0RM8xTi1FakRZ5GaSVy8jnczHqT60UUVzHlBXefDDV7azurvTZzskuG8yNyeDgYxXB0hGe5HuDiqhLldzSjUdKamj6QLADJIA9TXi3j3UoNS8UO1tIJIooxGWHTcOtYsusapPaC0lvpmtxwE3GqYGK1qVeZWR1YnGe1jyxVhDngjqDkV7n4U8QQa5o0Enmp9qRQs0eeVYe1eG0sbvDKssMjRyKcgqcVFOpyMyw2IdGV7XTPo/OOtc14m8Y2GgQSRiQTXxX5IU5IPYn0FeSTa9rFzF5U2oTNHjGN1Z2Ockkn1Jya1lX00R1VMxurQWpLcXE15cyXNy5eaVtzMfWo6KK5jzG76sKKKKAGuu9Cp717N4D1+DVdCitmdFurVdjx552joa8bp0ckkMolido5F6MpxWlOfI7m+HrujPmPo1mVFLMwAHJJNeJ+Otbg17xAGtiGgtVMSSDo/PJ/Osm71nVNQiEV3fTSoOg3YqkAAMCqqVeZWRvicZ7aPLFWRveDdat9C8RJc3YPkSIYmYfwZPU+1e3xyxzRrJE6ujDIZTkEV85dat2eralp0bR2d7LEjdVDcUU6vKrMMNjPZR5ZK6PZPFHiu08O2ZO5Zbtx+7hB5z6n2rxe9vbnUr2S8vJTJNIcknt7CoXZ5JGkkdndjksxzSVNSo5+hliMTKs+yCiiiszmCkIDDBGQaWigDuPBHjZtMePStVlLWZO2Cdj/qv9lv9n37V6urKyhlIIPQg184EAjB6Vdt9Z1Sztzb29/MkJGCu6t4VrKzPQoY5wjyzVz0v4i6/Da6O2nQTK13OQGUHO1O+a8mAwMClYs7l3Ysx6ljk0VnOfO7nNiKzrT5mFFFFQYBRRRQBND9w/WiiH7h+tFUUiJvvn60lK33z9aSpJCiiigAooooAKKKKACiiigAooooAKKKKACiiigAooooAKKKKACiiigAooooAKKKKACiiigAooooAKKKKACiiigAooooAKKKKACiiigAooooAKKKKACiiigAooooAKKKKACiiigAooooAKKKKACiiigAooooAKKKKAJofuH60UQ/cP1oqikRyqUldT1BNNrZ8U6e2m6/cwlcKTlT6isak1Z2CcXGTTCiiikSFFFFABRRRQAUUUUAFFFFABRRRQAUUUUAFFFFABRRRQAUUUUAFFFFABRRRQAUUUUAFFFFABRRRQAUUUUAFFFFABRRRQAUUUUAFFFFABRRRQAUUUUAFFFFABRRRQAUUUUAFFFFABRRRQAUUUUAFFFFABRRRQBbtbd5Yiyg4zRXoXhPwyLjQIZpl2s5JwR2ordUm1c74YOcopl34g+Hm1GxXULdMzwD5gO615KRg4NfR5AYEEAg9Qa838XeA3Mkl/pSZB5eEf0q61O/vI2xuFcn7SHzPOKKfLFJDIY5UZHXgqwwRTK5TygooooAKKKKACiiigAooooAKKKKACiiigAooooAKKKKACiiigAooooAKKKKACiiigAooooAKKKKACiiigAooooAKKKKACiiigAooooAKKKKACiiigAooooAKKKKACiiigAooooAKKKKACiiigAooooAK1/DmiS65q0VuinywcyN6LRonhy/1y4VLeIiPPzSsPlFex6BoFroFiIIBmQ8vIRyxrWnTcnd7HZhcLKq7vY0reBLa3jgjGEjUKPwoqSiu09wKKKKAMbWPDul6nEWubVS3XcvB/OvKtb0a0s5mWAOoB/vZoornrJHmY6Md7GH5K+po8lfU0UVzHlh5K+po8lfU0UUAHkr6mjyV9TRRQAeSvqaPJX1NFFAB5K+po8lfU0UUAHkr6mjyV9TRRQAeSvqaPJX1NFFAB5K+po8lfU0UUAHkr6mjyV9TRRQAeSvqaPJX1NFFAB5K+po8lfU0UUAHkr6mjyV9TRRQAeSvqaPJX1NFFAB5K+po8lfU0UUAHkr6mjyV9TRRQAeSvqaPJX1NFFAB5K+po8lfU0UUAHkr6mjyV9TRRQAeSvqaPJX1NFFAB5K+po8lfU0UUAHkr6mjyV9TRRQAeSvqaPJX1NFFAB5K+po8lfU0UUAHkr6mjyV9TRRQAeSvqaPJX1NFFAB5K+po8lfU0UUAHkr6mjyV9TRRQBLb2scsgVi2PY16F4Z8J6TcKs00DOy8jc3FFFa0kmzrwkU56o7+C3htoxHBEkaDsoxUlFFdh7gUUUUAf//Z;" vertex="1" parent="1">
                    <mxGeometry x="477" y="240" width="40" height="40" as="geometry"/>
                </mxCell>
                <mxCell id="7" value="" style="dashed=0;outlineConnect=0;html=1;align=center;labelPosition=center;verticalLabelPosition=bottom;verticalAlign=top;shape=mxgraph.weblogos.chrome" vertex="1" parent="1">
                    <mxGeometry x="57" y="240" width="39.68" height="40" as="geometry"/>
                </mxCell>
                <mxCell id="9" value="" style="endArrow=classic;html=1;strokeWidth=2;fillColor=#d5e8d4;strokeColor=#82b366;" edge="1" parent="1">
                    <mxGeometry width="50" height="50" relative="1" as="geometry">
                        <mxPoint x="114" y="241" as="sourcePoint"/>
                        <mxPoint x="363" y="241" as="targetPoint"/>
                    </mxGeometry>
                </mxCell>
                <mxCell id="10" value="http://study.duyiedu.com/movie/*" style="text;html=1;align=center;verticalAlign=middle;resizable=0;points=[];autosize=1;fontFamily=Roboto Mono;fillColor=#d5e8d4;strokeColor=#82b366;" vertex="1" parent="1">
                    <mxGeometry x="117" y="208" width="240" height="18" as="geometry"/>
                </mxCell>
                <mxCell id="14" value="HTML" style="shape=note;whiteSpace=wrap;html=1;backgroundOutline=1;darkOpacity=0.05;fontFamily=Roboto Mono;size=11;fillColor=#fff2cc;strokeColor=#d6b656;" vertex="1" parent="1">
                    <mxGeometry x="592" y="100" width="40" height="50" as="geometry"/>
                </mxCell>
                <mxCell id="15" value="CSS" style="shape=note;whiteSpace=wrap;html=1;backgroundOutline=1;darkOpacity=0.05;fontFamily=Roboto Mono;size=11;fillColor=#d5e8d4;strokeColor=#82b366;" vertex="1" parent="1">
                    <mxGeometry x="650" y="100" width="40" height="50" as="geometry"/>
                </mxCell>
                <mxCell id="16" value="JS" style="shape=note;whiteSpace=wrap;html=1;backgroundOutline=1;darkOpacity=0.05;fontFamily=Roboto Mono;size=11;fillColor=#ffe6cc;strokeColor=#d79b00;" vertex="1" parent="1">
                    <mxGeometry x="592" y="161" width="40" height="50" as="geometry"/>
                </mxCell>
                <mxCell id="17" value="PNG" style="shape=note;whiteSpace=wrap;html=1;backgroundOutline=1;darkOpacity=0.05;fontFamily=Roboto Mono;size=11;fillColor=#e1d5e7;strokeColor=#9673a6;" vertex="1" parent="1">
                    <mxGeometry x="650" y="163" width="40" height="50" as="geometry"/>
                </mxCell>
                <mxCell id="18" value="" style="endArrow=classic;html=1;strokeWidth=2;fillColor=#d5e8d4;strokeColor=#82b366;" edge="1" parent="1">
                    <mxGeometry width="50" height="50" relative="1" as="geometry">
                        <mxPoint x="523" y="246" as="sourcePoint"/>
                        <mxPoint x="580" y="170" as="targetPoint"/>
                    </mxGeometry>
                </mxCell>
                <mxCell id="19" value="/movie 开头" style="text;html=1;align=center;verticalAlign=middle;resizable=0;points=[];autosize=1;fontFamily=Roboto Mono;fillColor=#d5e8d4;strokeColor=#82b366;" vertex="1" parent="1">
                    <mxGeometry x="468" y="177" width="84" height="18" as="geometry"/>
                </mxCell>
                <mxCell id="20" value="" style="shape=image;verticalLabelPosition=bottom;labelBackgroundColor=#ffffff;verticalAlign=top;aspect=fixed;imageAspect=0;image=data:image/png,iVBORw0KGgoAAAANSUhEUgAAAIAAAACACAYAAADDPmHLAAAMbElEQVR4Xu1dfYwU5Rn/PbN3t3sH4lcU1LQGtaZColRkZxFbbZvUVtoaP8BWwQo7S5VE/aNajU0EY22rNqnFKOV2lrOn1CAC2ojWNE2tEe52FaVGSD9Qem0IJzQCetzO3Mc8zSwcvTv2duadnV3mPd75x8g+H795nmef3zvv7TwvwceVzNjXEfNsMJ0B8GQimsLsnAWiKT7UwxLpY3A3kbYHzN1g7CXifYPEm97OtmwJy0kQO6mM9S1mXgjQRQDOAHAmgMYgtgLqHABjHwh7AWzUGC935BI7/diisYSmLd07cWL/pAVgWkjgy/0YO14yDGwE0bOFbHxjvTAkM9aFGvOtDLoJwAX18uvXDwGvOEzthVx8XSWdsgWQNOxlAC8k4Hy/DqMgx6AtYDzhddPVYk0Z1koGfgCguVpbtdenDsB5Om82P1fO1zEFkDSKywm0rPbAaueBmebXqgh0w3oHwMzaoa+NZQY/VDCbl4+2PqIA3G8+gY8Rqg2k2lqtRRHohnUIQEttkdfOerkiOFoA4yn5w0I4N28mXg0jpLphvQdgRhi2jqeN0V+MUgGUFnx9k7bJxvmegSRanc/G055yHgKpjPUCM+ZVaycq+sOLoFQAyYx1OzFWRgVgiDgOan3O9I72lt1BbaYy1p3MWBFUP5p69L52UlOq41dUPFwAhr056o96QQNJwN2dZiJQAmen+TSH7HwUH/OCxmNIj5ju68zFH6MjmzwbqjUYXX1+M282XxkEX4B10esM7gTROxpzTxCfQXQYdCEBycN7EjzRnw3ePaAVp5OesR4H4x5/SnJKDWiDZ29tnbBHFL1uFP8E0Nf86I31mOVHNywZ/Yf2NB5EVqCbzyU9Y7ejtI05fi+NYnM6so1C28Uzl3Bjg2O7j32eW7oax0/vyNEnUYlg0ig+R6BbvPAQ6BG3A7wOxje8hGX+nIgWdGbja0TuIWUUr2LQn710gtj2slnt5zOX8FkNjvUBQKd52HqDdMP6K4CLq3UabX1+MG82PyyCUc9YS8F4qrIO7c+bca8gi7gNTTZlFNcw6GYPg9tJN4rdAE0OzXMkDVFb3owvFoGmp62nQFjqofP3vJn4oojdesnqhn0/wD+v5I/B+9wOwPUCdRz9vJE3E18V8a8bltv+r/JqoaJ2RTBUI+ubwlQBlA+zKoBqyi96uqoDjJETRQFjBEZ1gOh9i6tBpDqA6gBqEViuBhQFKApQj4HlakCtAaph3OjpqjWAWgOoNYBaAwh0JkUBAsGSQFRRgKIARQGKAgRalaIAgWBJIKooQFGAogBFAQKtSlGAQLAkEFUUoChAUYCiAIFWpShAIFgSiCoKUBSgKEBRgECrUhQgECwJRBUFKApQFKAoQKBVKQoQCJYEoooCKlCADaBJgiQGh8h4LZ9LXCNiQDesTQAq6rhzCQtmfI6I3XrJJpdYc8nBKx7++ilpFLsI9Pl6ATsefhh4smAm7hLxrRvWYwDuraTDwIcFMxG5KaEu5qRRfMB9/9/jnne7AyI6wayLBEc2WSLc1ZlNPCmCO7W4eBtr1FZZh3ryZvwkEbv1ktXT1osg3ODhb5v7XsBLAK6tF7Dj4YcI13ZmE78X8a0b9sUAu7MTKl4MmAUzkfGSq+fnybQ9j4hf8PZJG0hPW60gROoGvIGLSbCjzSisbvJM5mirfmcnBCkwsTsQk/aNG1hKKaP4CIMeEHMhl7Q9UDx12zOnHhBFraeLz4Poe3703CFRg1pi1dZWEh5G5ce+H5lkxvo2Mf/Wx2iYkjmOabNoVqb3co21zX4cSCnDWJ/PJW4Mgl1PFxeDKOdfl3oYeJ/ABQYf9K83JKkFHNbBl7hjfgQnvW7Om4krjgyKtDYQcJ044OhrMJybC2bL80GR6ob9EsDjbo00RFtHRsWWTgQZj8Mid352MD59xzrqC1oAqXTvHCbtraD6kdQbNkN5+LTwcTculpkeLeTi91ebhKRR/AmBflqtnYjo/6PBiV+2eTV95uL5fwH4fnSIyG14wqDtiGF+flV8h6eoD4GUYW9gsPQ0qWl0UUdr/G9DtzzywIhxUwThJn8oWLphrQKwxEe9RFREuyxvNm0dDu7YI2OkL4LaJP9oEQg/GUShFujlAc02trZO+u9oNGUPjdIN6xoQ3QBmdyvx5Cjcgg8MO5lpPTWgPay2P5bP1KJe3YnRnX7m8frAXUuRnURYUWkbfMxj41xUs2/tPYebtBsYbiHQV2qJNLBtxnomZ33Pweb11az2g/h3zwsEsCh6p4nQdobzYowTK7yGWFcsgOFBmbnk0FlN3DSV4Uxlds4DtKkATw0SuCA6DFgAdhHhI4B2EQ3saoj173pr5Sn7g9gLU+fLi/iMvgZ7HhhfIPCZDPeATe8p46FhIByAg33uQZoA/thpNr/h17bvAvBrUMnJFQFVAHLlK3S0qgBCD6lcBlUByJWv0NGqAgg9pHIZVAUgV75CR6sKIPSQymVQFYBc+QodrSqA0EMql0FVAHLlK3S0qgBCD6lcBlUByJWv0NH6LoDj/ccgMIpM2KkR/gmgyxnUuvqcQ11Bfu4dZhRn3Lb/lCZtwrlazDkXwLmO+wchxgUgNIfpp5ItBu8GsBPAR8wN/2rEQNeWXHOXH//qz8F+olRG5vCp685NKJ3YHb2LQB+AsJY1XptflXC/NGUv9YMQgdzNm8exrkl9PyKCe0z7pQKqx1O0D8xrGbS2kEu4bzyPuNRPwnymptTqG1raCfwdnyqRE2Om+YVcfN1wYOpHoT7SNGtR7+e0mPYcgGj+KsrHPQyJjC4C9bNwj+ClDPsiBv8OwAyBOEdadHgRqBdDPFKVTNu/IOL7Ip1RQXDDJ5uoV8MqBG/aPG466WR7O4BITgERzPsIcSa6vpCNb1Qvh1aIYtLo/T5Bc9v/uLsY2FgwE9er18MrpNbnmBVpi8MhZ84JMSCisdE6TfTn41fcceDU/v7EJ9Jm1wdwAv3shBgRQ9rgzM7WCe/6iMlRkdSSQ5eyExvxHp2IvgyyBOROiCFRILoxn42vF0mKnrHdV+NeFNGRTpax6YQYEwfCvfls4pciCdIz1j1gPC6iI58sv3OiDIpcWTATS0USlDSspwm4Q0RHQtn/uBQw7kfFMvCHgplwX+T0fSUN6zUCvulbQU7BPrcAAk6mkuqOazUsWqoglAOrCmCMFPocF68KQJIIqA4wRqJUB1AdQK0BytWAogBJertPmIoCFAXU5NAon/UXXTG1BlBrALUGUGuA6HaosJCpNYBaA6g1gNoJFOgn6jFQIFgSiCoKUBSgKEBRgECrUhQgECwJRBUFKApQFKAoQKBVKQoQCJYEoooCFAUoClAUINCqFAUIBEsCUUUBigIUBSgKEGhVigIEgiWBqKIARQGKAhQFCLSqE4cC0sU9IJoiEBsJRaktb8YXiwBPGlaWAENERzpZ5m5KGfa7DP6SdOCFAPODebP5YRGVVNr+MRM/KqIjmyyB3nMnhLwKgtCbs9LdKNGCzmx8jQjuVKZ3PrO2VkRHOlnGa6Sn7TYQ3yYdeAHAGsXmdGQbtwiowD0gmmNap4iOdLJMz7jvBTwG4F7pwAsAHtAGz97aOmGPgAp0gycDdreIjoSyj9Phsee8QULwPiHzm3mz+UqfwiPEdKP4l8iemh7khkbpuMMijwyKtDcT+PIQbEbOBAF3d5qJFUGApQzrLgZ+HUQ36jpD42KPjIq1bifGyqiDDoDvoNbnTO9ob3FP1BC+Zt/ae47TpLmjYk8WVo64AhPuKGQTvykVwLSleydO7Ju0jYDzI45bDB7R6nw2nhZTGimtZ+wcmIX2EKrxVw9dBj7safp0xo6nz+wZNi28uJxAy+oBoI4+5ubNxKvV+NMN6xoALwNoqMZOlHQZ/FDBbF7uYhp5YIRhLyNw6QPZr3KnYwS9p2Sm/2piZw3Apwe1ERW94ck/pgDcf0ga8neCMJM/lLhUuncOk9YO4LyoJFMUx+jkly2Aw0VgLwN4oWxrAndlC8YTo8/FEQ3UWPLJxT2XkNbwEIBrw7JZDzsM/jeAtqG2P9znmMfGlRaG/ZMWgGlh1B8R3dn3IHrWPQChHgGdlS5+nQiLCHRLPfwF90HbAW7TON7WkaOyk899HRxZ2iwq7RPQZIAngzGl9N/S/9ft6mNwN5G2B8zdYOwl4n2DxJvezrYIbfOGhdjdLkYs9l03FuzGhI7GxI1LU1h+vO3wfoDcXcuPAf4YoI+ZsaPn03jbjnXUV0n/f+gOa+VhhNV5AAAAAElFTkSuQmCC;fontFamily=Roboto Mono;fontColor=#000000;" vertex="1" parent="1">
                    <mxGeometry x="618" y="324" width="42" height="42" as="geometry"/>
                </mxCell>
                <mxCell id="21" value="静态资源，前端产出" style="text;html=1;align=center;verticalAlign=middle;resizable=0;points=[];autosize=1;fontFamily=Roboto Mono;fontColor=#000000;" vertex="1" parent="1">
                    <mxGeometry x="583" y="65" width="118" height="18" as="geometry"/>
                </mxCell>
                <mxCell id="22" value="接口，后端产出" style="text;html=1;align=center;verticalAlign=middle;resizable=0;points=[];autosize=1;fontFamily=Roboto Mono;fontColor=#000000;" vertex="1" parent="1">
                    <mxGeometry x="592" y="382" width="94" height="18" as="geometry"/>
                </mxCell>
                <mxCell id="23" value="" style="endArrow=classic;html=1;strokeWidth=2;fillColor=#ffe6cc;strokeColor=#d79b00;" edge="1" parent="1">
                    <mxGeometry width="50" height="50" relative="1" as="geometry">
                        <mxPoint x="112.5" y="275" as="sourcePoint"/>
                        <mxPoint x="361.5" y="275" as="targetPoint"/>
                    </mxGeometry>
                </mxCell>
                <mxCell id="24" value="http://study.duyiedu.com/api/*" style="text;html=1;align=center;verticalAlign=middle;resizable=0;points=[];autosize=1;fontFamily=Roboto Mono;fillColor=#ffe6cc;strokeColor=#d79b00;" vertex="1" parent="1">
                    <mxGeometry x="124" y="285.5" width="226" height="18" as="geometry"/>
                </mxCell>
                <mxCell id="25" value="" style="endArrow=classic;html=1;strokeWidth=2;fillColor=#ffe6cc;strokeColor=#d79b00;" edge="1" parent="1">
                    <mxGeometry width="50" height="50" relative="1" as="geometry">
                        <mxPoint x="523" y="265" as="sourcePoint"/>
                        <mxPoint x="598" y="334" as="targetPoint"/>
                    </mxGeometry>
                </mxCell>
                <mxCell id="26" value="/api 开头" style="text;html=1;align=center;verticalAlign=middle;resizable=0;points=[];autosize=1;fontFamily=Roboto Mono;fillColor=#ffe6cc;strokeColor=#d79b00;" vertex="1" parent="1">
                    <mxGeometry x="489" y="310" width="70" height="18" as="geometry"/>
                </mxCell>
            </root>
        </mxGraphModel>
    </diagram>
</mxfile>